<?xml version="1.0" encoding="UTF-8"?>
<svg version="1.1" xmlns="http://www.w3.org/2000/svg" width="505" height="494">
<path d="M0 0 C1.76413147 1.76413147 1.17077918 4.29271794 1.20532227 6.68701172 C1.22526749 7.90693817 1.24521271 9.12686462 1.26576233 10.38375854 C1.28278371 11.73239977 1.29966104 13.08104282 1.31640625 14.4296875 C1.33700909 15.81764294 1.35800636 17.20559258 1.37937927 18.59353638 C1.42346088 21.52081987 1.46433047 24.44812423 1.50268555 27.37548828 C1.55111595 31.07020807 1.60482091 34.76482375 1.66065407 38.45943832 C1.88949908 53.63960184 2.0780547 68.81774075 2 84 C1.43829102 84.05945801 0.87658203 84.11891602 0.29785156 84.18017578 C-31.09526619 87.63787618 -61.04105941 98.27846438 -85.03125 119.41796875 C-87 121 -87 121 -89 121 C-89 121.66 -89 122.32 -89 123 C-90.57421875 124.515625 -90.57421875 124.515625 -92.6875 126.25 C-95.35349133 128.50075728 -97.71010091 130.70049545 -99.875 133.4375 C-100.57625 134.283125 -101.2775 135.12875 -102 136 C-102.66 136 -103.32 136 -104 136 C-104 136.66 -104 137.32 -104 138 C-104.66 138 -105.32 138 -106 138 C-106.226875 138.53625 -106.45375 139.0725 -106.6875 139.625 C-108 142 -108 142 -110.5625 145.0625 C-113.13537799 147.80205688 -113.13537799 147.80205688 -114 151 C-114.66 151 -115.32 151 -116 151 C-116.226875 151.825 -116.45375 152.65 -116.6875 153.5 C-118.27883329 157.74355544 -120.56199481 161.20206706 -123 165 C-134.24847858 182.87576691 -138.9550505 204.66269613 -140.640625 225.44921875 C-141 229 -141 229 -142 230 C-144.55589888 230.09506052 -147.08467972 230.12556761 -149.64086914 230.11352539 C-150.84077736 230.11374443 -150.84077736 230.11374443 -152.06492615 230.1139679 C-154.72169665 230.11326855 -157.37839793 230.10547518 -160.03515625 230.09765625 C-161.87218691 230.09579215 -163.70921806 230.09436821 -165.54624939 230.09336853 C-170.39109662 230.08954275 -175.23591408 230.07971196 -180.08074951 230.06866455 C-185.02062578 230.05845172 -189.96050685 230.05387119 -194.90039062 230.04882812 C-204.60027353 230.03808974 -214.30013429 230.0210126 -224 230 C-231.00967758 196.75189778 -211.46887263 151.81530716 -196 123 C-195.67 122.38398926 -195.34 121.76797852 -195 121.13330078 C-190.58410897 112.97209593 -185.65833955 105.35812301 -180 98 C-179.401875 97.22011719 -178.80375 96.44023438 -178.1875 95.63671875 C-177.04305832 94.15763007 -175.89225355 92.68343741 -174.734375 91.21484375 C-173.49867688 89.63682386 -172.28186081 88.04394072 -171.078125 86.44140625 C-170.45421875 85.61511719 -169.8303125 84.78882812 -169.1875 83.9375 C-168.62417969 83.18339844 -168.06085938 82.42929688 -167.48046875 81.65234375 C-166.99191406 81.10707031 -166.50335938 80.56179687 -166 80 C-165.34 80 -164.68 80 -164 80 C-163.74025391 79.41573242 -163.48050781 78.83146484 -163.21289062 78.22949219 C-161.915344 75.84438836 -160.50658878 74.24809363 -158.59375 72.328125 C-157.93246094 71.66425781 -157.27117187 71.00039062 -156.58984375 70.31640625 C-155.90019531 69.63449219 -155.21054688 68.95257813 -154.5 68.25 C-153.81035156 67.55261719 -153.12070313 66.85523437 -152.41015625 66.13671875 C-151.74886719 65.47800781 -151.08757812 64.81929688 -150.40625 64.140625 C-149.80103516 63.53766602 -149.19582031 62.93470703 -148.57226562 62.31347656 C-147 61 -147 61 -145 61 C-145 60.34 -145 59.68 -145 59 C-143.5390625 57.4921875 -143.5390625 57.4921875 -141.625 55.875 C-140.99851562 55.33617187 -140.37203125 54.79734375 -139.7265625 54.2421875 C-138 53 -138 53 -136 53 C-136 52.34 -136 51.68 -136 51 C-134.64916992 49.75415039 -134.64916992 49.75415039 -132.73046875 48.34765625 C-132.01656982 47.82405518 -131.3026709 47.3004541 -130.56713867 46.76098633 C-129.38921753 45.9202356 -129.38921753 45.9202356 -128.1875 45.0625 C-126.96994019 44.19177856 -126.96994019 44.19177856 -125.7277832 43.3034668 C-99.61347279 24.92431301 -70.8554048 12.71460517 -40 5 C-39.26918213 4.8158252 -38.53836426 4.63165039 -37.78540039 4.44189453 C-31.35870532 2.91266619 -24.86842942 2.13488301 -18.3125 1.375 C-16.66024414 1.17390625 -16.66024414 1.17390625 -14.97460938 0.96875 C-9.95586574 0.37510259 -5.06322911 -0.18561364 0 0 Z " fill="#FEFDFD" transform="translate(239,6)"/>
<path d="M0 0 C0.75067245 0.00045319 1.50134491 0.00090637 2.27476501 0.00137329 C3.06173767 -0.00198532 3.84871033 -0.00534393 4.65953064 -0.00880432 C7.27421119 -0.01834283 9.88882789 -0.02025888 12.50352478 -0.02133179 C14.31334459 -0.02454235 16.12316414 -0.02790626 17.9329834 -0.03141785 C21.73197532 -0.03741638 25.53094447 -0.03925701 29.3299408 -0.03866577 C34.20725876 -0.03856411 39.08443128 -0.05221764 43.96171474 -0.06943798 C47.70110754 -0.08053529 51.44046493 -0.08258568 55.17987251 -0.08205605 C56.97847559 -0.08323955 58.77707948 -0.08768189 60.57566643 -0.09538841 C63.08744988 -0.10514276 65.59891436 -0.10232847 68.11070251 -0.09628296 C68.85935074 -0.10190247 69.60799896 -0.10752197 70.3793335 -0.11331177 C75.52911543 -0.08167864 75.52911543 -0.08167864 77.75743103 2.14663696 C77.90850775 11.17347111 76.27463891 20.27296719 74.75743103 29.14663696 C74.53826816 30.50203902 74.31953879 31.85751122 74.10118103 33.21304321 C70.46496891 55.32111179 64.00162526 77.17406897 53.75743103 97.14663696 C53.40390564 97.84273071 53.05038025 98.53882446 52.68614197 99.25601196 C46.03968056 112.2833073 38.46196365 124.33359785 29.89414978 136.17788696 C28.48005954 138.14261928 27.1001979 140.13248666 25.75743103 142.14663696 C25.09743103 142.14663696 24.43743103 142.14663696 23.75743103 142.14663696 C23.51766541 142.69319946 23.27789978 143.23976196 23.03086853 143.80288696 C21.447991 146.71615849 19.49485066 149.092083 17.38243103 151.64663696 C16.61157166 152.58507446 15.84071228 153.52351196 15.04649353 154.49038696 C13.02920915 156.83126303 11.05194584 159.07669169 8.75743103 161.14663696 C8.09743103 161.14663696 7.43743103 161.14663696 6.75743103 161.14663696 C6.75743103 161.80663696 6.75743103 162.46663696 6.75743103 163.14663696 C6.09743103 163.14663696 5.43743103 163.14663696 4.75743103 163.14663696 C4.75743103 163.80663696 4.75743103 164.46663696 4.75743103 165.14663696 C3.07774353 166.87319946 3.07774353 166.87319946 0.88243103 168.77163696 C0.16313416 169.40327759 -0.55616272 170.03491821 -1.29725647 170.68569946 C-3.24256897 172.14663696 -3.24256897 172.14663696 -5.24256897 172.14663696 C-5.24256897 172.80663696 -5.24256897 173.46663696 -5.24256897 174.14663696 C-7.33229167 175.94203252 -9.42098979 177.61725138 -11.61756897 179.27163696 C-12.22085022 179.73956665 -12.82413147 180.20749634 -13.44569397 180.68960571 C-17.98115771 184.14663696 -17.98115771 184.14663696 -20.24256897 184.14663696 C-20.24256897 184.80663696 -20.24256897 185.46663696 -20.24256897 186.14663696 C-22.19178772 187.59194946 -22.19178772 187.59194946 -24.93006897 189.27163696 C-25.94713928 189.89683228 -26.96420959 190.52202759 -28.01210022 191.16616821 C-29.07815491 191.8197229 -30.14420959 192.47327759 -31.24256897 193.14663696 C-32.19518616 193.76925415 -33.14780334 194.39187134 -34.12928772 195.03335571 C-66.9521794 216.18588591 -109.02061201 230.14663696 -148.24256897 230.14663696 C-148.24256897 202.75663696 -148.24256897 175.36663696 -148.24256897 147.14663696 C-136.36256897 145.16663696 -136.36256897 145.16663696 -124.24256897 143.14663696 C-118.77056135 141.64690154 -113.52687801 140.1280855 -108.24256897 138.14663696 C-107.20543762 137.76185181 -107.20543762 137.76185181 -106.14735413 137.36929321 C-91.50777608 131.85264356 -78.72768706 124.64487018 -66.39466858 115.00723267 C-61.43424117 111.14663696 -61.43424117 111.14663696 -59.24256897 111.14663696 C-59.24256897 110.48663696 -59.24256897 109.82663696 -59.24256897 109.14663696 C-57.87928772 107.84194946 -57.87928772 107.84194946 -55.93006897 106.27163696 C-46.86055362 98.53681979 -37.61571485 88.89292872 -32.24256897 78.14663696 C-31.58256897 78.14663696 -30.92256897 78.14663696 -30.24256897 78.14663696 C-30.03631897 77.36288696 -29.83006897 76.57913696 -29.61756897 75.77163696 C-28.46940422 72.74465716 -27.33099083 70.58782673 -25.61756897 67.89663696 C-13.55619418 48.26734074 -7.91379379 25.86079663 -6.45350647 3.01773071 C-6.00970198 -0.91897948 -3.38146945 0.02120774 0 0 Z " fill="#FEFDFC" transform="translate(412.24256896972656,250.85336303710938)"/>
<path d="M0 0 C27.39 0 54.78 0 83 0 C83.99 6.93 83.99 6.93 85 14 C92.54007844 52.00090258 112.97593785 87.47971817 144.75 110.375 C146.00490234 111.29732422 146.00490234 111.29732422 147.28515625 112.23828125 C150.76942843 114.77785443 154.08703155 117.1625582 158 119 C158 119.66 158 120.32 158 121 C158.57419678 121.12528076 159.14839355 121.25056152 159.73999023 121.37963867 C162.05302664 122.01455555 164.00921546 122.86911407 166.16015625 123.92578125 C166.9480957 124.30839111 167.73603516 124.69100098 168.54785156 125.08520508 C169.37768555 125.4902124 170.20751953 125.89521973 171.0625 126.3125 C186.81755302 133.86562292 202.62135114 138.58975096 219.91796875 141.04907227 C225.90767071 141.90767071 225.90767071 141.90767071 227 143 C227.10035816 145.52002451 227.13617712 148.012662 227.12939453 150.53320312 C227.13202301 151.71607155 227.13202301 151.71607155 227.13470459 152.9228363 C227.13912358 155.5423296 227.13618496 158.16175596 227.1328125 160.78125 C227.13348553 162.5934653 227.13445554 164.40568052 227.13571167 166.21789551 C227.13718871 170.02108619 227.1350339 173.82425344 227.13037109 177.62744141 C227.1246738 182.51378495 227.12795278 187.40007357 227.13394356 192.2864151 C227.13754901 196.03005389 227.13641066 199.77367955 227.13381577 203.51731873 C227.13314645 205.31953437 227.13397507 207.12175118 227.13629532 208.92396545 C227.13882159 211.43827491 227.13498162 213.95249417 227.12939453 216.46679688 C227.13141876 217.21904037 227.13344299 217.97128387 227.13552856 218.74632263 C227.1142626 223.8857374 227.1142626 223.8857374 226 225 C218.38706273 225.65813247 210.87135124 224.45292727 203.375 223.25 C202.22491455 223.06735596 201.0748291 222.88471191 199.88989258 222.6965332 C183.69690674 220.04913203 168.44701563 215.45794552 153 210 C152.32614258 209.76587402 151.65228516 209.53174805 150.95800781 209.29052734 C138.60322687 204.93938277 127.35831056 198.44246442 116 192 C115.32114746 191.61569824 114.64229492 191.23139648 113.94287109 190.83544922 C110.60064652 188.93528748 107.28629938 186.99525319 104 185 C103.32453125 184.59136719 102.6490625 184.18273437 101.953125 183.76171875 C100.25 182.6875 100.25 182.6875 98 181 C98 180.34 98 179.68 98 179 C96.92685547 178.62875 96.92685547 178.62875 95.83203125 178.25 C92.68590294 176.86136405 90.36189037 175.15536054 87.6875 173 C86.80449219 172.29875 85.92148438 171.5975 85.01171875 170.875 C84.01591797 169.946875 84.01591797 169.946875 83 169 C83 168.34 83 167.68 83 167 C82.46375 166.773125 81.9275 166.54625 81.375 166.3125 C78.17539839 164.54429911 75.70962777 162.46329797 73 160 C73 159.34 73 158.68 73 158 C72.34 158 71.68 158 71 158 C71 157.34 71 156.68 71 156 C70.34 156 69.68 156 69 156 C67.625 154.63671875 67.625 154.63671875 66 152.6875 C63.0555284 149.21437588 60.02892874 145.84321932 56.9375 142.5 C46 130.49379771 46 130.49379771 46 127 C45.34 127 44.68 127 44 127 C38.20343479 119.57059952 33.58189731 111.11696128 29.04296875 102.88037109 C27.98279022 100.96897244 26.89794926 99.07292026 25.8125 97.17578125 C13.07039608 74.49383645 5.86537073 49.36354974 1.625 23.8125 C1.45701904 22.80968994 1.28903809 21.80687988 1.1159668 20.77368164 C0.01914229 13.63395259 0 7.38678504 0 0 Z " fill="#FEFDFD" transform="translate(15,256)"/>
<path d="M0 0 C2.89318657 0.15184935 5.78621366 0.3060754 8.67919922 0.46166992 C9.49470749 0.50422661 10.31021576 0.54678329 11.1504364 0.59062958 C16.53506112 0.88261839 21.8171498 1.33106095 27.125 2.3125 C28.22799438 2.50706787 28.22799438 2.50706787 29.35327148 2.70556641 C36.99900223 4.10166486 44.5072845 5.94650789 52 8 C52.70012207 8.18820312 53.40024414 8.37640625 54.12158203 8.5703125 C64.13123141 11.28111802 73.58521425 14.60929604 83 19 C83.88059082 19.40557129 84.76118164 19.81114258 85.66845703 20.22900391 C107.38713932 30.26108735 107.38713932 30.26108735 117 37 C118.24722422 37.83034286 119.49606094 38.65826636 120.74609375 39.484375 C129.12093005 45.06492748 136.97517533 51.00769953 144.50830078 57.68017578 C146.00541172 59.00478817 147.51521795 60.31366835 149.02734375 61.62109375 C154.22716134 66.17913862 154.22716134 66.17913862 156 68 C156 68.66 156 69.32 156 70 C156.66 70 157.32 70 158 70 C158 70.66 158 71.32 158 72 C158.66 72 159.32 72 160 72 C160 72.66 160 73.32 160 74 C160.66 74 161.32 74 162 74 C163.7265625 75.6796875 163.7265625 75.6796875 165.625 77.875 C166.25664062 78.59429687 166.88828125 79.31359375 167.5390625 80.0546875 C169 82 169 82 169 84 C169.66 84 170.32 84 171 84 C175 88.47058824 175 88.47058824 175 91 C175.66 91 176.32 91 177 91 C178.26171875 92.6171875 178.26171875 92.6171875 179.6875 94.875 C181.79391297 98.15389827 183.95891409 101.34772578 186.25 104.5 C197.61990887 120.73914137 206.21310183 138.41397145 213 157 C213.47824219 158.21558594 213.95648438 159.43117187 214.44921875 160.68359375 C221.77886664 180.23936313 225.30252194 201.21996403 226 222 C208.51626514 222.75858346 191.04102756 223.12520265 173.54107666 223.17724609 C171.47656865 223.18406702 169.41206902 223.19430582 167.34759521 223.20800781 C164.41784646 223.22593867 161.48839115 223.2301673 158.55859375 223.23046875 C157.24315331 223.2411866 157.24315331 223.2411866 155.90113831 223.25212097 C151.19697068 223.23473305 147.42391671 222.81479034 143 221 C142.65388672 219.1128125 142.65388672 219.1128125 142.30078125 217.1875 C140.22481343 206.17156443 137.67328829 195.59037269 134 185 C133.63261719 183.90558594 133.26523437 182.81117188 132.88671875 181.68359375 C128.52964044 169.48077993 121.95948358 158.18162203 114.21484375 147.8203125 C113 146 113 146 113 144 C112.34 144 111.68 144 111 144 C109.79696095 142.61002255 108.66364664 141.15951099 107.5625 139.6875 C94.66459986 123.28874126 78.11702997 111.09440356 60 101 C59.29101562 100.59523438 58.58203125 100.19046875 57.8515625 99.7734375 C41.2993684 90.8829577 21.94037005 86.53290728 3.421875 84.359375 C1 84 1 84 0 83 C-0.09507821 80.41360962 -0.12556376 77.8540144 -0.11352539 75.26733398 C-0.11367142 74.4576416 -0.11381744 73.64794922 -0.1139679 72.8137207 C-0.11326854 70.12448492 -0.1054751 67.43531751 -0.09765625 64.74609375 C-0.09579215 62.88664284 -0.09436821 61.02719144 -0.09336853 59.16773987 C-0.08954271 54.26370904 -0.07971188 49.35970764 -0.06866455 44.45568848 C-0.05845181 39.45548908 -0.05387121 34.45528494 -0.04882812 29.45507812 C-0.03808967 19.63670579 -0.02101248 9.81835534 0 0 Z " fill="#FB6161" transform="translate(263,6)"/>
<path d="M0 0 C1.15144501 -0.00315216 2.30289001 -0.00630432 3.48922729 -0.009552 C5.37038742 -0.00651566 5.37038742 -0.00651566 7.28955078 -0.00341797 C8.56839142 -0.00437469 9.84723206 -0.00533142 11.16482544 -0.00631714 C13.87682294 -0.00779413 16.58878756 -0.00564023 19.30078125 -0.00097656 C22.77671374 0.00470937 26.25256883 0.00144897 29.72849846 -0.00454903 C33.04052208 -0.00903414 36.35252496 -0.00589206 39.66455078 -0.00341797 C40.91460907 -0.0054422 42.16466736 -0.00746643 43.4526062 -0.009552 C45.18923019 -0.00482376 45.18923019 -0.00482376 46.9609375 0 C47.98162323 0.00079559 49.00230896 0.00159119 50.05392456 0.00241089 C52.60986328 0.12939453 52.60986328 0.12939453 55.60986328 1.12939453 C56.77942079 33.55212762 41.29223764 64.59881695 19.60986328 87.94189453 C-5.39372513 114.26357417 -37.48037735 131.16392956 -74.17919922 132.34814453 C-106.56843517 133.01262913 -132.89405406 124.79368705 -160.39013672 108.12939453 C-159.85202335 103.87622925 -157.23412671 101.04587165 -154.64013672 97.81689453 C-153.72760791 96.66148918 -152.81613903 95.50524587 -151.90576172 94.34814453 C-151.25124023 93.51863281 -151.25124023 93.51863281 -150.58349609 92.67236328 C-149.11167578 90.76935502 -147.74315271 88.80566502 -146.39013672 86.81689453 C-145.73013672 85.93001953 -145.07013672 85.04314453 -144.39013672 84.12939453 C-143.73013672 84.12939453 -143.07013672 84.12939453 -142.39013672 84.12939453 C-142.12330078 83.55318359 -141.85646484 82.97697266 -141.58154297 82.38330078 C-136.99437384 73.70527919 -129.29730794 65.03656575 -122.39013672 58.12939453 C-117.64492234 58.46637352 -113.81119404 60.110227 -109.51513672 62.06689453 C-92.00521248 70.03841485 -71.51111747 70.0104476 -53.46044922 63.51220703 C-42.91111788 58.76098146 -31.58438486 51.27302796 -24.74560547 41.86767578 C-24.29830078 41.29404297 -23.85099609 40.72041016 -23.39013672 40.12939453 C-22.73013672 40.12939453 -22.07013672 40.12939453 -21.39013672 40.12939453 C-21.01308594 39.09685547 -21.01308594 39.09685547 -20.62841797 38.04345703 C-19.47526127 35.32971919 -18.10773239 32.86191919 -16.62280273 30.31933594 C-11.91667885 22.147104 -9.43448171 14.00898151 -7.30029297 4.85595703 C-5.96988683 -0.59128528 -5.28644366 0.00412705 0 0 Z " fill="#FEFCFC" transform="translate(334.39013671875,250.87060546875)"/>
<path d="M0 0 C1 1 1 1 1.12025452 3.47401428 C1.11803391 4.57321701 1.11581329 5.67241974 1.11352539 6.80493164 C1.11344986 8.04614273 1.11337433 9.28735382 1.11329651 10.56617737 C1.10818911 11.9308374 1.1029731 13.29549702 1.09765625 14.66015625 C1.095792 16.04878183 1.09436813 17.43740807 1.09336853 18.82603455 C1.08954387 22.48721115 1.07971403 26.1483483 1.06866455 29.80950928 C1.05844932 33.54292263 1.05387067 37.27634234 1.04882812 41.00976562 C1.03809171 48.33986177 1.02101591 55.66992536 1 63 C-0.4417298 63.48177619 -1.88356281 63.96324353 -3.32543945 64.44458008 C-4.12834915 64.71273026 -4.93125885 64.98088043 -5.75849915 65.25715637 C-7.43282606 65.81203596 -9.11178557 66.35297248 -10.79296875 66.88671875 C-16.36630905 68.75056012 -21.40748613 71.1644554 -26.5 74.0625 C-27.09965576 74.4030542 -27.69931152 74.7436084 -28.31713867 75.09448242 C-31.25389755 76.81320372 -33.63733417 78.56918035 -36 81 C-36.66 81 -37.32 81 -38 81 C-38 81.66 -38 82.32 -38 83 C-38.66 83 -39.32 83 -40 83 C-40 83.66 -40 84.32 -40 85 C-41.875 87.125 -41.875 87.125 -44 89 C-44.66 89 -45.32 89 -46 89 C-46.27199219 89.73992187 -46.54398437 90.47984375 -46.82421875 91.2421875 C-47.93439096 93.84611302 -49.16471823 95.83810498 -50.8125 98.125 C-57.31861101 107.67787519 -61.56878126 118.55025009 -63 130 C-64.76489252 131.76489252 -67.28894858 131.13678359 -69.68139648 131.14526367 C-70.89613144 131.15164352 -72.11086639 131.15802338 -73.3624115 131.16459656 C-74.69863851 131.16612513 -76.03486606 131.16723914 -77.37109375 131.16796875 C-78.73250871 131.17117973 -80.09392331 131.17454368 -81.45533752 131.17805481 C-84.31276245 131.18405216 -87.17015711 131.1858941 -90.02758789 131.18530273 C-93.69424251 131.18520109 -97.36070356 131.19885258 -101.02731228 131.21607494 C-103.84024451 131.22717819 -106.65312971 131.22922246 -109.46608162 131.22869301 C-110.81811248 131.22987569 -112.17014447 131.23431353 -113.52215385 131.24202538 C-115.41114701 131.25179073 -117.30019661 131.24769195 -119.18920898 131.24291992 C-120.26541 131.24434494 -121.34161102 131.24576996 -122.45042419 131.24723816 C-125 131 -125 131 -127 129 C-125.74575254 93.44690847 -107.13747191 61.06989592 -82.62890625 36.36328125 C-81 35 -81 35 -79 35 C-79 34.34 -79 33.68 -79 33 C-76.76522071 31.18141442 -74.52888606 29.48423788 -72.1875 27.8125 C-71.49970459 27.31782227 -70.81190918 26.82314453 -70.10327148 26.31347656 C-68.07604023 24.86515056 -66.03999406 23.43027516 -64 22 C-62.57300781 20.99259766 -62.57300781 20.99259766 -61.1171875 19.96484375 C-44.76990839 8.99167016 -19.99834435 -1.03848969 0 0 Z " fill="#FEFDFC" transform="translate(240,105)"/>
<path d="M0 0 C25.7221285 0 52.86422773 11.22518376 73 27 C73 27.66 73 28.32 73 29 C73.56203125 29.24492187 74.1240625 29.48984375 74.703125 29.7421875 C84.44721573 35.07823719 94.02823643 45.66911942 100 55 C100 55.66 100 56.32 100 57 C100.66 57 101.32 57 102 57 C103.5078125 58.86328125 103.5078125 58.86328125 105.125 61.3125 C105.66382813 62.11300781 106.20265625 62.91351563 106.7578125 63.73828125 C108 66 108 66 108 69 C108.66 69 109.32 69 110 69 C117.05968449 82.33106674 122.12885407 95.36068151 125.375 110.125 C125.64521973 111.33410034 125.64521973 111.33410034 125.92089844 112.56762695 C126.07848633 113.33163818 126.23607422 114.09564941 126.3984375 114.8828125 C126.53942871 115.55715332 126.68041992 116.23149414 126.82568359 116.92626953 C127 119 127 119 126 124 C105.54 124 85.08 124 64 124 C63.01 121.36 62.02 118.72 61 116 C59.18235691 111.18290025 57.39558128 106.49361493 54.75 102.0625 C53 99 53 99 53 96 C52.34 96 51.68 96 51 96 C49.625 94.34765625 49.625 94.34765625 48 92.0625 C35.8139944 76.09808199 19.2360007 68.27466682 0 64 C0 42.88 0 21.76 0 0 Z " fill="#FDFCFC" transform="translate(263,105)"/>
<path d="M0 0 C1.11696762 0.00222061 2.23393524 0.00444122 3.38475037 0.00672913 C4.64598221 0.00680466 5.90721405 0.00688019 7.20666504 0.00695801 C8.59341979 0.01206542 9.98017414 0.01728142 11.3669281 0.02259827 C12.77797394 0.0244625 14.18902042 0.02588638 15.60006714 0.02688599 C19.3204272 0.03071072 23.04074845 0.04054062 26.76109314 0.05158997 C30.55482966 0.06180504 34.34857243 0.06638381 38.14231873 0.07142639 C45.59090416 0.08216294 53.03945758 0.09923882 60.48802185 0.12025452 C60.81415466 1.19911926 61.14028748 2.27798401 61.4763031 3.38954163 C61.9174737 4.82979938 62.35889324 6.26998089 62.80052185 7.71009827 C63.01386169 8.41823669 63.22720154 9.12637512 63.44700623 9.85597229 C66.32946632 19.21052329 70.68810919 27.27331386 76.48802185 35.12025452 C76.48802185 35.78025452 76.48802185 36.44025452 76.48802185 37.12025452 C77.14802185 37.12025452 77.80802185 37.12025452 78.48802185 37.12025452 C78.9686302 40.6703482 78.68383319 41.86246794 76.4763031 44.76869202 C75.59329529 45.66845764 74.71028748 46.56822327 73.80052185 47.49525452 C70.78104786 50.65139494 67.93126989 53.68348024 65.48802185 57.30775452 C64.82802185 58.23587952 64.16802185 59.16400452 63.48802185 60.12025452 C62.82802185 60.12025452 62.16802185 60.12025452 61.48802185 60.12025452 C61.21989685 60.69259827 60.95177185 61.26494202 60.67552185 61.85462952 C59.44669549 64.19910086 58.06280009 66.24430389 56.48802185 68.37025452 C55.97239685 69.07666077 55.45677185 69.78306702 54.92552185 70.51087952 C54.45114685 71.04197327 53.97677185 71.57306702 53.48802185 72.12025452 C52.82802185 72.12025452 52.16802185 72.12025452 51.48802185 72.12025452 C51.11290466 72.94976624 51.11290466 72.94976624 50.73020935 73.79603577 C49.26522973 76.53711398 47.52875871 78.86067177 45.61302185 81.30775452 C44.59595154 82.62839905 44.59595154 82.62839905 43.55833435 83.97572327 C41.48802185 86.12025452 41.48802185 86.12025452 39.48802185 87.14759827 C37.48802185 87.12025452 37.48802185 87.12025452 35.48020935 85.70619202 C13.15160038 62.38886236 -1.84413121 33.78191213 -3.51197815 1.12025452 C-2.51197815 0.12025452 -2.51197815 0.12025452 0 0 Z " fill="#FC5F5F" transform="translate(117.51197814941406,255.87974548339844)"/>
<path d="M0 0 C0.33 0 0.66 0 1 0 C1.08228759 1.99928362 1.13976302 3.99959318 1.1875 6 C1.22230469 7.11375 1.25710937 8.2275 1.29296875 9.375 C1 13 1 13 -2 21 C-2.66 28.59 -3.32 36.18 -4 44 C22.4 44 48.8 44 76 44 C76.33 38.06 76.66 32.12 77 26 C77.66 23.36 78.32 20.72 79 18 C79.66 18 80.32 18 81 18 C80.86722656 18.85980469 80.73445313 19.71960938 80.59765625 20.60546875 C79.50339958 27.92979992 78.68328811 35.15416638 78.24609375 42.55078125 C78 45 78 45 77 46 C74.44410112 46.09506052 71.91532028 46.12556761 69.35913086 46.11352539 C68.15922264 46.11374443 68.15922264 46.11374443 66.93507385 46.1139679 C64.27830335 46.11326855 61.62160207 46.10547518 58.96484375 46.09765625 C57.12781309 46.09579215 55.29078194 46.09436821 53.45375061 46.09336853 C48.60890338 46.08954275 43.76408592 46.07971196 38.91925049 46.06866455 C33.97937422 46.05845172 29.03949315 46.05387119 24.09960938 46.04882812 C14.39972647 46.03808974 4.69986571 46.0210126 -5 46 C-6.08002774 40.89809978 -5.82931088 36.60135715 -5.3125 31.4375 C-5.22436035 30.52524658 -5.1362207 29.61299316 -5.04541016 28.6730957 C-4.02564468 18.98033301 -2.10371872 9.50758317 0 0 Z " fill="#E8C2C2" transform="translate(20,190)"/>
<path d="M0 0 C17.92508245 0.7113128 34.68503255 3.35279484 52 8 C52 8.33 52 8.66 52 9 C45.63440427 8.50873071 39.30735307 8.00344253 33 7 C33 6.34 33 5.68 33 5 C32.34257812 5.10699219 31.68515625 5.21398437 31.0078125 5.32421875 C21.30585066 6.5468237 12.4928023 4.86691779 3 3 C3.01047363 3.59425781 3.02094727 4.18851563 3.03173828 4.80078125 C3.07371131 7.53380989 3.0994558 10.26677037 3.125 13 C3.15013672 14.40185547 3.15013672 14.40185547 3.17578125 15.83203125 C3.21606145 21.59209963 2.65416655 26.4774282 1 32 C0.67 32 0.34 32 0 32 C0 21.44 0 10.88 0 0 Z " fill="#E76F71" transform="translate(263,6)"/>
<path d="M0 0 C3.13590354 3.13590354 3.31167396 7.05984285 4.1875 11.3125 C4.47270508 12.59543945 4.47270508 12.59543945 4.76367188 13.90429688 C4.93833984 14.73638672 5.11300781 15.56847656 5.29296875 16.42578125 C5.4530542 17.18286377 5.61313965 17.93994629 5.77807617 18.7199707 C6 21 6 21 5 26 C-15.46 26 -35.92 26 -57 26 C-60.375 17 -60.375 17 -61.6875 12.5 C-61.93886719 11.6440625 -62.19023437 10.788125 -62.44921875 9.90625 C-62.63097656 9.2771875 -62.81273437 8.648125 -63 8 C-62.01 8 -61.02 8 -60 8 C-60 8.66 -60 9.32 -60 10 C-59.34 10 -58.68 10 -58 10 C-58.04125 11.0725 -58.0825 12.145 -58.125 13.25 C-58.00780624 16.76581294 -57.67021593 18.07712211 -56 21 C-56 21.99 -56 22.98 -56 24 C-36.53 23.67 -17.06 23.34 3 23 C3 18.16122551 2.65474638 14.94052505 1.5 10.375 C0.5710023 6.68481468 0 3.82989016 0 0 Z " fill="#F5CCCA" transform="translate(384,203)"/>
<path d="M0 0 C1.11696762 0.00222061 2.23393524 0.00444122 3.38475037 0.00672913 C4.64598221 0.00680466 5.90721405 0.00688019 7.20666504 0.00695801 C8.59341979 0.01206542 9.98017414 0.01728142 11.3669281 0.02259827 C12.77797394 0.0244625 14.18902042 0.02588638 15.60006714 0.02688599 C19.3204272 0.03071072 23.04074845 0.04054062 26.76109314 0.05158997 C30.55482966 0.06180504 34.34857243 0.06638381 38.14231873 0.07142639 C45.59090416 0.08216294 53.03945758 0.09923882 60.48802185 0.12025452 C61.35491363 2.69993249 62.20675974 5.28301579 63.05052185 7.87025452 C63.29737732 8.59986389 63.54423279 9.32947327 63.79856873 10.08119202 C64.02737732 10.79017639 64.25618591 11.49916077 64.4919281 12.22962952 C64.81399231 13.20367737 64.81399231 13.20367737 65.14256287 14.19740295 C65.81519361 17.94131795 64.22798374 20.87232565 62.48802185 24.12025452 C62.43194763 23.17666077 62.43194763 23.17666077 62.3747406 22.21400452 C61.91981996 16.29111622 60.79129732 11.59053377 58.48802185 6.12025452 C57.99302185 4.63525452 57.99302185 4.63525452 57.48802185 3.12025452 C56.88989685 3.30587952 56.29177185 3.49150452 55.67552185 3.68275452 C53.48802185 4.12025452 53.48802185 4.12025452 50.48802185 3.12025452 C49.62177185 3.12025452 48.75552185 3.12025452 47.86302185 3.12025452 C47.07927185 3.12025452 46.29552185 3.12025452 45.48802185 3.12025452 C44.99302185 2.62525452 44.99302185 2.62525452 44.48802185 2.12025452 C43.13707203 2.02756453 41.78135094 2.00278125 40.42723083 2.00672913 C39.56641403 2.00680466 38.70559723 2.00688019 37.81869507 2.00695801 C36.41557823 2.01469994 36.41557823 2.01469994 34.9841156 2.02259827 C33.55459312 2.02472069 33.55459312 2.02472069 32.09619141 2.02688599 C29.0392702 2.032503 25.98242108 2.04505836 22.92552185 2.05775452 C20.85846561 2.06276733 18.79140823 2.06733061 16.72434998 2.07142639 C11.64554597 2.08247795 6.56679615 2.09975397 1.48802185 2.12025452 C0.362861 3.95309895 0.362861 3.95309895 -0.51197815 6.12025452 C-0.18197815 7.11025452 0.14802185 8.10025452 0.48802185 9.12025452 C0.21032277 11.46086101 -0.11737792 13.7964976 -0.51197815 16.12025452 C-0.84197815 16.12025452 -1.17197815 16.12025452 -1.51197815 16.12025452 C-1.87284687 13.64189168 -2.22595972 11.16285665 -2.57447815 8.68275452 C-2.67824768 7.97570374 -2.78201721 7.26865295 -2.88893127 6.54017639 C-3.13886978 4.73889545 -3.32999129 2.92966411 -3.51197815 1.12025452 C-2.51197815 0.12025452 -2.51197815 0.12025452 0 0 Z " fill="#EC7575" transform="translate(117.51197814941406,255.87974548339844)"/>
<path d="M0 0 C2.43666821 2.93483528 3.64967057 5.45957162 4.68359375 9.12109375 C4.96960449 10.12841553 5.25561523 11.1357373 5.55029297 12.17358398 C5.84307129 13.25067627 6.13584961 14.32776855 6.4375 15.4375 C6.74316895 16.55261963 7.04883789 17.66773926 7.36376953 18.81665039 C11.75092462 35.16444107 14.58651878 51.06794411 15 68 C14.01 67.67 13.02 67.34 12 67 C12.03480469 66.319375 12.06960938 65.63875 12.10546875 64.9375 C12.31953494 57.27189182 11.32452954 50.29839683 9.7890625 42.8359375 C9.12013834 39.58403886 8.54119656 36.33719782 8 33.0625 C7.13001706 28.270344 6.06303794 23.43553158 4 19 C3.34 18.67 2.68 18.34 2 18 C1.3671875 15.48828125 1.3671875 15.48828125 0.875 12.3125 C0.70742188 11.27738281 0.53984375 10.24226562 0.3671875 9.17578125 C0.00971025 6.08398337 -0.06525778 3.10906723 0 0 Z " fill="#E58D8E" transform="translate(474,160)"/>
<path d="M0 0 C0.33 0 0.66 0 1 0 C1.24615385 15.50769231 1.24615385 15.50769231 -1 20 C-0.36550934 19.99555878 0.26898132 19.99111755 0.92269897 19.98654175 C7.50833898 19.9423992 14.09393717 19.91217148 20.6796875 19.89013672 C23.13966579 19.88006017 25.59963206 19.86639869 28.05957031 19.84912109 C31.58922285 19.82494539 35.11871747 19.8135336 38.6484375 19.8046875 C39.75367767 19.79436493 40.85891785 19.78404236 41.99765015 19.77340698 C43.01855743 19.77325592 44.03946472 19.77310486 45.09130859 19.77294922 C45.99287689 19.768508 46.89444519 19.76406677 47.82333374 19.75949097 C50 20 50 20 52 22 C44.48863592 22.05057965 36.97731551 22.08568257 29.46582031 22.10986328 C26.90883747 22.11994038 24.35186621 22.13360226 21.79492188 22.15087891 C18.12627308 22.17505217 14.45777621 22.18646585 10.7890625 22.1953125 C9.0655809 22.21079636 9.0655809 22.21079636 7.30728149 22.22659302 C6.2463327 22.22674408 5.18538391 22.22689514 4.09228516 22.22705078 C3.15518707 22.231492 2.21808899 22.23593323 1.25259399 22.24050903 C-1 22 -1 22 -3 20 C-2.84298312 17.49661766 -2.5802353 15.1544421 -2.1875 12.6875 C-2.09146484 12.02298828 -1.99542969 11.35847656 -1.89648438 10.67382812 C-1.36873802 7.09294516 -0.74665483 3.54147289 0 0 Z " fill="#FFEBEA" transform="translate(116,214)"/>
<path d="M0 0 C2.50313837 2.50313837 2.46645618 3.84366471 2.9609375 7.3125 C3.63600267 11.73543186 4.39148244 16.11653096 5.2890625 20.5 C5.50820313 21.57121094 5.72734375 22.64242188 5.953125 23.74609375 C6.40754994 25.94688429 6.86331609 28.14739824 7.3203125 30.34765625 C7.536875 31.40855469 7.7534375 32.46945312 7.9765625 33.5625 C8.17330566 34.51253906 8.37004883 35.46257812 8.57275391 36.44140625 C9 39 9 39 9 43 C9.66 43 10.32 43 11 43 C13.91360308 47.77830905 14.19876651 50.55106131 13 56 C3.05220495 41.07830742 0.52529047 17.57096627 0 0 Z " fill="#F9D7D5" transform="translate(16,268)"/>
<path d="M0 0 C8 0 8 0 12 2 C8.7 2.33 5.4 2.66 2 3 C1.67 22.8 1.34 42.6 1 63 C2.65 63 4.3 63 6 63 C6 63.33 6 63.66 6 64 C4.02 64 2.04 64 0 64 C0 42.88 0 21.76 0 0 Z " fill="#F5C6C3" transform="translate(263,105)"/>
<path d="M0 0 C1.37562854 1.28965176 2.70766393 2.62689293 4 4 C4 4.66 4 5.32 4 6 C4.66 6 5.32 6 6 6 C6.48060835 9.55009368 6.19581134 10.74221342 3.98828125 13.6484375 C3.10527344 14.54820312 2.22226563 15.44796875 1.3125 16.375 C-2.53891271 20.4121546 -5.90901595 24.36352392 -9 29 C-10.1171875 25.28125 -10.1171875 25.28125 -9.0625 22.75 C-8.711875 22.1725 -8.36125 21.595 -8 21 C-7.01 21 -6.02 21 -5 21 C-5 20.01 -5 19.02 -5 18 C-3.68 17.67 -2.36 17.34 -1 17 C-1 16.01 -1 15.02 -1 14 C-0.34 14 0.32 14 1 14 C1.14975239 6.94348748 1.14975239 6.94348748 0 0 Z " fill="#E28284" transform="translate(190,287)"/>
<path d="M0 0 C0.33 0 0.66 0 1 0 C1.32317148 7.85187005 1.11090052 13.78271078 -2 21 C-2.97866721 26.45742896 -3.29082742 31.91052175 -3.5625 37.4375 C-3.60568359 38.26443359 -3.64886719 39.09136719 -3.69335938 39.94335938 C-3.79838033 41.96209549 -3.89958559 43.98102951 -4 46 C-4.66 45.67 -5.32 45.34 -6 45 C-5.47531763 29.6937489 -3.58748867 14.90187601 0 0 Z " fill="#F8D1CE" transform="translate(20,190)"/>
<path d="M0 0 C0 3.97054597 -1.3139381 5.16471244 -4 8 C-6.25 8.8125 -6.25 8.8125 -8 9 C-8 9.66 -8 10.32 -8 11 C-11.33849547 14.75472348 -14.87644796 18.24597764 -20 18.9375 C-21.485 18.9684375 -21.485 18.9684375 -23 19 C-19.87234776 15.70614401 -16.50346891 12.97803805 -12.875 10.25 C-12.06869141 9.63318359 -12.06869141 9.63318359 -11.24609375 9.00390625 C-7.244212 6 -7.244212 6 -5 6 C-5 5.34 -5 4.68 -5 4 C-3.37373596 2.61767557 -1.7074998 1.28062485 0 0 Z " fill="#FCE6E5" transform="translate(358,356)"/>
<path d="M0 0 C2.47189838 1.23594919 2.69937796 2.09815069 3.83984375 4.5703125 C4.18080078 5.3025 4.52175781 6.0346875 4.87304688 6.7890625 C5.22431641 7.55992187 5.57558594 8.33078125 5.9375 9.125 C6.45860352 10.24648437 6.45860352 10.24648437 6.99023438 11.390625 C8.00662984 13.58802988 9.00585022 15.79245445 10 18 C10.30437988 18.66354492 10.60875977 19.32708984 10.92236328 20.01074219 C12.20009532 22.86331835 13 24.83551304 13 28 C12.34 28 11.68 28 11 28 C10.731875 27.113125 10.46375 26.22625 10.1875 25.3125 C9.06638979 22.18519258 7.71111052 19.82991355 6 17 C4.95176763 14.67689042 3.94872714 12.3393279 2.96484375 9.98828125 C2.05464889 7.83634625 2.05464889 7.83634625 0 6 C-0.125 2.875 -0.125 2.875 0 0 Z " fill="#EA9393" transform="translate(461,132)"/>
<path d="M0 0 C0.33 0 0.66 0 1 0 C1.24615385 15.50769231 1.24615385 15.50769231 -1 20 C3.62 20 8.24 20 13 20 C13 20.66 13 21.32 13 22 C10.70858714 22.05384521 8.41681812 22.09272087 6.125 22.125 C4.84882812 22.14820313 3.57265625 22.17140625 2.2578125 22.1953125 C-1 22 -1 22 -3 20 C-2.84298312 17.49661766 -2.5802353 15.1544421 -2.1875 12.6875 C-2.09146484 12.02298828 -1.99542969 11.35847656 -1.89648438 10.67382812 C-1.36873802 7.09294516 -0.74665483 3.54147289 0 0 Z " fill="#F3C7C7" transform="translate(116,214)"/>
<path d="M0 0 C2 1.8125 2 1.8125 4 4 C4 4.99 4 5.98 4 7 C4.66 7 5.32 7 6 7 C6 8.32 6 9.64 6 11 C6.66 11 7.32 11 8 11 C11 16.625 11 16.625 11 20 C11.99 20.33 12.98 20.66 14 21 C14 22.65 14 24.3 14 26 C10.92755469 23.16593406 8.94177725 20.44359803 7 16.75 C6.49210937 15.78578125 5.98421875 14.8215625 5.4609375 13.828125 C4.97882812 12.89484375 4.49671875 11.9615625 4 11 C3.57976563 10.21109375 3.15953125 9.4221875 2.7265625 8.609375 C0 3.38829787 0 3.38829787 0 0 Z " fill="#F6CDCB" transform="translate(36,341)"/>
<path d="M0 0 C2.11052117 3.16578176 3.41988284 6.23660831 4.875 9.75 C6.52799535 13.71230464 8.20220194 17.57383036 10.4375 21.25 C10.953125 22.1575 11.46875 23.065 12 24 C11.67 24.66 11.34 25.32 11 26 C10.67 25.01 10.34 24.02 10 23 C9.01 22.67 8.02 22.34 7 22 C2.80212398 15.49765198 -0.47501588 7.83776209 0 0 Z " fill="#FADBD9" transform="translate(105,293)"/>
<path d="M0 0 C3.02988585 0.66008994 5.64295461 1.66680685 8.44140625 2.99609375 C9.68760742 3.58680664 9.68760742 3.58680664 10.95898438 4.18945312 C11.81814453 4.60130859 12.67730469 5.01316406 13.5625 5.4375 C14.85704102 6.04948242 14.85704102 6.04948242 16.17773438 6.67382812 C19.61351061 8.31029342 22.8267619 9.88450794 26 12 C23.36 12 20.72 12 18 12 C18 11.34 18 10.68 18 10 C17.01 10.33 16.02 10.66 15 11 C14.814375 10.360625 14.62875 9.72125 14.4375 9.0625 C13.963125 8.381875 13.48875 7.70125 13 7 C10.6739143 6.61936779 8.33944736 6.28730055 6 6 C4.25 4.5 4.25 4.5 3 3 C2.01 2.67 1.02 2.34 0 2 C0 1.34 0 0.68 0 0 Z " fill="#F8D1CF" transform="translate(173,377)"/>
<path d="M0 0 C0.33 0.66 0.66 1.32 1 2 C-1.74694024 8.71198067 -6.07007029 14.7365799 -10.25 20.625 C-10.68610596 21.24084961 -11.12221191 21.85669922 -11.5715332 22.49121094 C-14.74356496 26.87178248 -14.74356496 26.87178248 -17 28 C-16.39816251 25.97954558 -15.72693904 23.97888961 -15 22 C-14.34 21.67 -13.68 21.34 -13 21 C-12.07133836 19.51132724 -11.20294664 17.98445294 -10.375 16.4375 C-9.92898438 15.61121094 -9.48296875 14.78492188 -9.0234375 13.93359375 C-8.68570312 13.29550781 -8.34796875 12.65742188 -8 12 C-7.34 12 -6.68 12 -6 12 C-5.81824219 11.30132812 -5.63648438 10.60265625 -5.44921875 9.8828125 C-5.19785156 8.97273438 -4.94648438 8.06265625 -4.6875 7.125 C-4.44386719 6.22007812 -4.20023437 5.31515625 -3.94921875 4.3828125 C-3 2 -3 2 0 0 Z " fill="#FCDEDC" transform="translate(376,304)"/>
<path d="M0 0 C3.75730247 1.6281644 6.616823 4.01401917 9.75 6.625 C11.22726562 7.85089844 11.22726562 7.85089844 12.734375 9.1015625 C13.85585938 10.04128906 13.85585938 10.04128906 15 11 C14.01 11.495 14.01 11.495 13 12 C10.6429774 11.05719096 8.30965848 10.05352843 6 9 C5.01 8.67 4.02 8.34 3 8 C3.33 7.67 3.66 7.34 4 7 C3.34 6.401875 2.68 5.80375 2 5.1875 C0 3 0 3 0 0 Z " fill="#EC9193" transform="translate(393,53)"/>
<path d="M0 0 C5.26621606 0.59578777 9.94408019 1.81308796 14.9375 3.5625 C15.96327148 3.91344727 15.96327148 3.91344727 17.00976562 4.27148438 C18.67508501 4.84211829 20.33782493 5.42027098 22 6 C22 6.99 22 7.98 22 9 C21.175 8.690625 20.35 8.38125 19.5 8.0625 C16.68743545 7.20868576 14.61566516 6.83940196 11.75 6.625 C8 6 8 6 6.5 3.9375 C6.335 3.298125 6.17 2.65875 6 2 C4.02 2 2.04 2 0 2 C0 1.34 0 0.68 0 0 Z " fill="#EA8688" transform="translate(315,15)"/>
<path d="M0 0 C10.43707751 -0.34534448 10.43707751 -0.34534448 15.25 1 C19.14268182 2.03804849 22.01948518 2.16585478 26 2 C26 2.66 26 3.32 26 4 C26.99 4.33 27.98 4.66 29 5 C19.02951308 4.55447747 9.72608429 3.16589272 0 1 C0 0.67 0 0.34 0 0 Z " fill="#F5CCCB" transform="translate(202,475)"/>
<path d="M0 0 C7.44773582 2.07559851 13.8879512 5.19767594 20 10 C20.33 10.99 20.66 11.98 21 13 C13.34482291 10.28364684 6.41907893 5.91674131 0 1 C0 0.67 0 0.34 0 0 Z " fill="#FAD1D2" transform="translate(117,438)"/>
<path d="M0 0 C-3.55225592 2.36817061 -7.2496591 4.21689394 -11.0625 6.125 C-12.16174805 6.68380859 -12.16174805 6.68380859 -13.28320312 7.25390625 C-18.7603022 10 -18.7603022 10 -21 10 C-21 9.34 -21 8.68 -21 8 C-20.34 8 -19.68 8 -19 8 C-18.731875 7.360625 -18.46375 6.72125 -18.1875 6.0625 C-17 4 -17 4 -14 3 C-13.34 3.33 -12.68 3.66 -12 4 C-12 3.34 -12 2.68 -12 2 C-7.82262526 0.40861915 -4.46839215 -0.21278058 0 0 Z " fill="#F6D6D5" transform="translate(231,170)"/>
<path d="M0 0 C0.45890625 0.39832031 0.9178125 0.79664062 1.390625 1.20703125 C5.31674827 4.60015709 5.31674827 4.60015709 9.4375 7.75 C9.953125 8.1625 10.46875 8.575 11 9 C11 9.66 11 10.32 11 11 C11.66 11 12.32 11 13 11 C13 11.66 13 12.32 13 13 C13.66 13 14.32 13 15 13 C15 13.66 15 14.32 15 15 C12 15 12 15 10.3125 13.625 C9 12 9 12 9 10 C7.35 9.67 5.7 9.34 4 9 C3.67 7.35 3.34 5.7 3 4 C1.02 3.34 -0.96 2.68 -3 2 C-2.01 1.34 -1.02 0.68 0 0 Z " fill="#EB878A" transform="translate(408,65)"/>
<path d="M0 0 C5.94 0.33 11.88 0.66 18 1 C18 1.33 18 1.66 18 2 C10.08 2.495 10.08 2.495 2 3 C1.67 10.26 1.34 17.52 1 25 C0.67 25 0.34 25 0 25 C0 16.75 0 8.5 0 0 Z " fill="#EEA6A7" transform="translate(263,6)"/>
<path d="M0 0 C0.66 0 1.32 0 2 0 C3.13764351 4.26616316 4 7.56486311 4 12 C4.66 12 5.32 12 6 12 C8.91360308 16.77830905 9.19876651 19.55106131 8 25 C6.25406542 22.38109813 5.4206896 20.59019243 4.4921875 17.65625 C4.22792969 16.82222656 3.96367187 15.98820312 3.69140625 15.12890625 C3.42199219 14.26136719 3.15257812 13.39382813 2.875 12.5 C2.59785156 11.63246094 2.32070313 10.76492188 2.03515625 9.87109375 C0 3.38465979 0 3.38465979 0 0 Z " fill="#F6CFCC" transform="translate(21,299)"/>
<path d="M0 0 C5.80205656 5.64524422 5.80205656 5.64524422 8 9 C8 9.66 8 10.32 8 11 C8.66 11 9.32 11 10 11 C10.66 12.65 11.32 14.3 12 16 C10.68 16 9.36 16 8 16 C6.515625 14.35546875 6.515625 14.35546875 5.25 12.1875 C4.82203125 11.47980469 4.3940625 10.77210938 3.953125 10.04296875 C3 8 3 8 3 5 C2.34 5 1.68 5 1 5 C0.67 3.35 0.34 1.7 0 0 Z " fill="#F9DDDB" transform="translate(355,151)"/>
<path d="M0 0 C-2.18376766 1.13277268 -4.37157128 2.25622789 -6.5625 3.375 C-7.17158203 3.69210937 -7.78066406 4.00921875 -8.40820312 4.3359375 C-12.53701886 6.43311374 -16.51082113 7.85603936 -21 9 C-21 8.34 -21 7.68 -21 7 C-18.30040523 5.20027015 -16.98962454 4.74740613 -14 4 C-13.01 3.34 -12.02 2.68 -11 2 C-9.68413065 1.39777754 -8.34901902 0.83626685 -7 0.3125 C-5.9790625 -0.09548828 -5.9790625 -0.09548828 -4.9375 -0.51171875 C-3 -1 -3 -1 0 0 Z " fill="#F9DBD8" transform="translate(361,455)"/>
<path d="M0 0 C2.31 0.66 4.62 1.32 7 2 C7.33 3.32 7.66 4.64 8 6 C9.65 6.33 11.3 6.66 13 7 C13.33 8.98 13.66 10.96 14 13 C12.34049923 11.57757077 10.68126579 10.15484775 9.0234375 8.73046875 C7.67961097 7.5812117 6.33066453 6.43791326 4.9765625 5.30078125 C4.34492188 4.76839844 3.71328125 4.23601562 3.0625 3.6875 C2.47597656 3.19636719 1.88945312 2.70523438 1.28515625 2.19921875 C0.86105469 1.80347656 0.43695313 1.40773437 0 1 C0 0.67 0 0.34 0 0 Z " fill="#F5D2D0" transform="translate(297,182)"/>
<path d="M0 0 C0 3.59857954 -0.95830515 5.09451118 -3 8 C-3.66 8 -4.32 8 -5 8 C-5.268125 8.94875 -5.53625 9.8975 -5.8125 10.875 C-7 14 -7 14 -10 16 C-9.67 13.69 -9.34 11.38 -9 9 C-8.01 8.67 -7.02 8.34 -6 8 C-5.690625 7.030625 -5.38125 6.06125 -5.0625 5.0625 C-4 2 -4 2 -1.875 0.625 C-1.25625 0.41875 -0.6375 0.2125 0 0 Z " fill="#FBD9D7" transform="translate(128,149)"/>
<path d="M0 0 C0.99 0 1.98 0 3 0 C3 0.66 3 1.32 3 2 C3.66 2 4.32 2 5 2 C4.938125 2.99 4.87625 3.98 4.8125 5 C4.78508355 9.46888211 6.2791773 12.91304608 8 17 C7.01 17 6.02 17 5 17 C4.80664062 16.27554688 4.61328125 15.55109375 4.4140625 14.8046875 C3.07139714 9.81954385 1.71250514 4.87405309 0 0 Z " fill="#F0BCB9" transform="translate(321,211)"/>
<path d="M0 0 C0.89460937 0.19335938 1.78921875 0.38671875 2.7109375 0.5859375 C9.79706569 2.11194805 16.88651064 3.60680508 24 5 C24 5.33 24 5.66 24 6 C20.7 6.33 17.4 6.66 14 7 C14 6.34 14 5.68 14 5 C13.236875 5.04125 12.47375 5.0825 11.6875 5.125 C9 5 9 5 6 3 C4.01200182 2.29835358 2.01301483 1.62627128 0 1 C0 0.67 0 0.34 0 0 Z " fill="#F5CECB" transform="translate(205,391)"/>
<path d="M0 0 C1.98 0 3.96 0 6 0 C2.83525695 3.25516428 -0.32752791 6.32008793 -4 9 C-4.66 9 -5.32 9 -6 9 C-6.33 8.01 -6.66 7.02 -7 6 C-3.375 3 -3.375 3 0 3 C0 2.01 0 1.02 0 0 Z " fill="#FBDAD8" transform="translate(156,118)"/>
<path d="M0 0 C6.95660771 0.57021375 13.31427305 2.01302694 20 4 C20 4.33 20 4.66 20 5 C13.63440427 4.50873071 7.30735307 4.00344253 1 3 C0.67 2.01 0.34 1.02 0 0 Z " fill="#E89193" transform="translate(295,10)"/>
<path d="M0 0 C1.65 0 3.3 0 5 0 C4.67 0.66 4.34 1.32 4 2 C4.45375 2.45375 4.9075 2.9075 5.375 3.375 C8.81801912 6.81801912 9.76240131 9.22640507 11 14 C7.74483572 10.83525695 4.67991207 7.67247209 2 4 C2 3.34 2 2.68 2 2 C1.34 2 0.68 2 0 2 C0 1.34 0 0.68 0 0 Z " fill="#F6D0CB" transform="translate(59,381)"/>
<path d="M0 0 C-2.70740662 2.70740662 -5.2626766 3.1010554 -8.9375 4.125 C-10.18402344 4.47820312 -11.43054688 4.83140625 -12.71484375 5.1953125 C-16 6 -16 6 -19 6 C-19 5.34 -19 4.68 -19 4 C-16.02111672 2.34506485 -13.33906657 1.61509121 -10 1 C-6.78548731 -0.60725635 -3.56387464 -0.05748185 0 0 Z " fill="#F8D3CD" transform="translate(219,92)"/>
<path d="M0 0 C2.31 0.33 4.62 0.66 7 1 C7.103125 1.639375 7.20625 2.27875 7.3125 2.9375 C7.539375 3.618125 7.76625 4.29875 8 5 C8.99 5.33 9.98 5.66 11 6 C11.33 6.99 11.66 7.98 12 9 C7.09198451 7.51272258 3.59508707 4.55364515 0 1 C0 0.67 0 0.34 0 0 Z " fill="#F8D8D5" transform="translate(101,426)"/>
<path d="M0 0 C3.95906817 1.43308135 7.28718181 3.33141949 10.8125 5.625 C11.78832031 6.25664063 12.76414062 6.88828125 13.76953125 7.5390625 C14.50558594 8.02117188 15.24164063 8.50328125 16 9 C14.1875 9.625 14.1875 9.625 12 10 C11.01 9.34 10.02 8.68 9 8 C9 7.34 9 6.68 9 6 C8.2575 5.9175 7.515 5.835 6.75 5.75 C3.47402617 4.85655259 2.16408188 3.56483779 0 1 C0 0.67 0 0.34 0 0 Z " fill="#E9999A" transform="translate(367,36)"/>
<path d="M0 0 C0.99 0.33 1.98 0.66 3 1 C3.66015625 2.7421875 3.66015625 2.7421875 4.0625 4.875 C4.6650556 7.98533464 5.15919177 9.23878766 7 12 C7.125 14.6875 7.125 14.6875 7 17 C3.87168546 15.43584273 3.58337548 12.82613503 2.375 9.625 C1.92898437 8.46226562 1.48296875 7.29953125 1.0234375 6.1015625 C0 3 0 3 0 0 Z " fill="#F4CCCA" transform="translate(29,324)"/>
<path d="M0 0 C0.33 0.66 0.66 1.32 1 2 C0.67 2.99 0.34 3.98 0 5 C-0.66 5 -1.32 5 -2 5 C-2.33 6.32 -2.66 7.64 -3 9 C-5.31 9.66 -7.62 10.32 -10 11 C-6.79239749 7.19364503 -3.59253891 3.45436433 0 0 Z " fill="#FDE6E3" transform="translate(310,293)"/>
<path d="M0 0 C2.50669944 2.50669944 4.05612026 4.43596345 5.8125 7.4375 C6.27269531 8.19933594 6.73289062 8.96117188 7.20703125 9.74609375 C8 12 8 12 7.13671875 14.28515625 C6.57404297 15.13400391 6.57404297 15.13400391 6 16 C5.34 13.69 4.68 11.38 4 9 C3.34 9 2.68 9 2 9 C1.34 6.03 0.68 3.06 0 0 Z " fill="#EA9096" transform="translate(453,118)"/>
<path d="M0 0 C1.32 0 2.64 0 4 0 C2.63055898 2.94956528 1.12169591 5.52468811 -1 8 C-1.66 8 -2.32 8 -3 8 C-3.66 9.32 -4.32 10.64 -5 12 C-5.33 11.01 -5.66 10.02 -6 9 C-5.67 8.34 -5.34 7.68 -5 7 C-4.01 7 -3.02 7 -2 7 C-1.855625 6.401875 -1.71125 5.80375 -1.5625 5.1875 C-1.1127561 3.43849596 -0.57107659 1.71322977 0 0 Z " fill="#F47B7B" transform="translate(172,320)"/>
<path d="M0 0 C0.66 0 1.32 0 2 0 C2.66 1.65 3.32 3.3 4 5 C4.99 5 5.98 5 7 5 C7.12375 5.969375 7.2475 6.93875 7.375 7.9375 C7.684375 9.4534375 7.684375 9.4534375 8 11 C8.66 11.33 9.32 11.66 10 12 C9.67 13.32 9.34 14.64 9 16 C5 9.375 5 9.375 5 6 C4.34 6 3.68 6 3 6 C0 2.53846154 0 2.53846154 0 0 Z " fill="#F3CCCB" transform="translate(311,195)"/>
<path d="M0 0 C4.98193544 3.26402667 6.9690712 7.53211476 9 13 C7.109375 12.75390625 7.109375 12.75390625 5 12 C3.953125 10.15234375 3.953125 10.15234375 3.25 7.9375 C2.88648438 6.83728516 2.88648438 6.83728516 2.515625 5.71484375 C2.26039063 4.86599609 2.26039063 4.86599609 2 4 C1.34 4 0.68 4 0 4 C0 2.68 0 1.36 0 0 Z " fill="#EB9699" transform="translate(444,105)"/>
<path d="M0 0 C3.13107836 3.38583802 3.33550778 5.71109462 3.1875 10.25 C3.16042969 11.32765625 3.13335937 12.4053125 3.10546875 13.515625 C3.07066406 14.33546875 3.03585937 15.1553125 3 16 C3.66 16 4.32 16 5 16 C4.67 16.99 4.34 17.98 4 19 C3.34 18.67 2.68 18.34 2 18 C1.3671875 15.48828125 1.3671875 15.48828125 0.875 12.3125 C0.70742188 11.27738281 0.53984375 10.24226562 0.3671875 9.17578125 C0.00971025 6.08398337 -0.06525778 3.10906723 0 0 Z " fill="#E97D80" transform="translate(474,160)"/>
<path d="M0 0 C-0.928125 0.598125 -1.85625 1.19625 -2.8125 1.8125 C-5.89326337 3.74062609 -5.89326337 3.74062609 -7.5625 5.75 C-9 7 -9 7 -11.6875 7.1875 C-12.450625 7.125625 -13.21375 7.06375 -14 7 C-10.41093986 2.98025264 -5.55416198 -1.85138733 0 0 Z " fill="#FCDEDD" transform="translate(190,121)"/>
<path d="M0 0 C0.99 0.66 1.98 1.32 3 2 C1.21190303 3.17213045 -0.58059125 4.33755526 -2.375 5.5 C-3.37273437 6.1496875 -4.37046875 6.799375 -5.3984375 7.46875 C-8 9 -8 9 -10 9 C-10 8.01 -10 7.02 -10 6 C-9.21625 5.896875 -8.4325 5.79375 -7.625 5.6875 C-4.66954819 5.22404978 -4.66954819 5.22404978 -3 2 C-2.01 2 -1.02 2 0 2 C0 1.34 0 0.68 0 0 Z " fill="#FADADA" transform="translate(384,438)"/>
<path d="M0 0 C0 0.66 0 1.32 0 2 C-1.75 3.5078125 -1.75 3.5078125 -4 5.125 C-4.7425 5.66382813 -5.485 6.20265625 -6.25 6.7578125 C-6.8275 7.16773438 -7.405 7.57765625 -8 8 C-8.66 7.67 -9.32 7.34 -10 7 C-7.45564849 2.16573213 -5.60644734 0 0 0 Z " fill="#FAE1DE" transform="translate(407,423)"/>
<path d="M0 0 C2.49310546 3.2410371 4.9059805 6.4850387 7 10 C6.67 10.99 6.34 11.98 6 13 C4 11.75 4 11.75 2 10 C2 8.68 2 7.36 2 6 C1.34 6 0.68 6 0 6 C0 4.02 0 2.04 0 0 Z " fill="#EA878B" transform="translate(183,275)"/>
<path d="M0 0 C0 0.99 0 1.98 0 3 C-0.66 3.66 -1.32 4.32 -2 5 C-2.061875 5.61875 -2.12375 6.2375 -2.1875 6.875 C-3.54699782 10.43060967 -6.69569617 11.31780896 -10 13 C-8.48446596 9.52224821 -6.4226544 7.0442016 -3.875 4.25 C-3.15054688 3.45078125 -2.42609375 2.6515625 -1.6796875 1.828125 C-0.84824219 0.92320312 -0.84824219 0.92320312 0 0 Z " fill="#FDE0DE" transform="translate(154,145)"/>
<path d="M0 0 C3.96 0 7.92 0 12 0 C7.52281208 2.98479194 3.36175907 4 -2 4 C-2 3.34 -2 2.68 -2 2 C-1.34 2 -0.68 2 0 2 C0 1.34 0 0.68 0 0 Z " fill="#FBD4D3" transform="translate(314,469)"/>
<path d="M0 0 C2.31 0 4.62 0 7 0 C4.52414762 2.65269897 2.40973899 4.68010103 -1 6 C-1.99 6 -2.98 6 -4 6 C-4 5.34 -4 4.68 -4 4 C-3.34 4 -2.68 4 -2 4 C-2 3.34 -2 2.68 -2 2 C-1.34 2 -0.68 2 0 2 C0 1.34 0 0.68 0 0 Z " fill="#FBE0DE" transform="translate(365,448)"/>
<path d="M0 0 C0.33 0.99 0.66 1.98 1 3 C0.401875 3.53625 -0.19625 4.0725 -0.8125 4.625 C-3.21315594 7.23142645 -4.54018514 9.7884073 -6 13 C-6.99 13 -7.98 13 -9 13 C-7.50923566 9.7173068 -5.61379679 7.06922559 -3.375 4.25 C-2.74335938 3.45078125 -2.11171875 2.6515625 -1.4609375 1.828125 C-0.97882813 1.22484375 -0.49671875 0.6215625 0 0 Z " fill="#FADCD8" transform="translate(185,342)"/>
<path d="M0 0 C1.32 0.33 2.64 0.66 4 1 C1.03 3.64 -1.94 6.28 -5 9 C-5.33 8.01 -5.66 7.02 -6 6 C-5.01 6 -4.02 6 -3 6 C-2.87625 5.38125 -2.7525 4.7625 -2.625 4.125 C-2 2 -2 2 0 0 Z " fill="#FDDCD8" transform="translate(346,342)"/>
<path d="M0 0 C0.33 0.66 0.66 1.32 1 2 C0.0980639 3.48819457 -0.82214129 4.96532813 -1.75 6.4375 C-2.51570312 7.67306641 -2.51570312 7.67306641 -3.296875 8.93359375 C-5.1792182 11.21744593 -6.1157546 11.65514457 -9 12 C-7.68 9.69 -6.36 7.38 -5 5 C-4.34 5 -3.68 5 -3 5 C-2.690625 4.360625 -2.38125 3.72125 -2.0625 3.0625 C-1 1 -1 1 0 0 Z " fill="#FBE0DF" transform="translate(195,330)"/>
<path d="M0 0 C0.66 0 1.32 0 2 0 C1.39305845 3.15330554 0.3583335 5.18888867 -1.5625 7.75 C-2.24505859 8.67039062 -2.24505859 8.67039062 -2.94140625 9.609375 C-3.29074219 10.06828125 -3.64007813 10.5271875 -4 11 C-5.1171875 7.28125 -5.1171875 7.28125 -4.0625 4.75 C-3.5365625 3.88375 -3.5365625 3.88375 -3 3 C-2.01 3 -1.02 3 0 3 C0 2.01 0 1.02 0 0 Z " fill="#F07B7E" transform="translate(185,305)"/>
<path d="M0 0 C0.66 0.33 1.32 0.66 2 1 C-3.445 7.93 -3.445 7.93 -9 15 C-9.33 14.01 -9.66 13.02 -10 12 C-9.36191406 11.30132812 -8.72382812 10.60265625 -8.06640625 9.8828125 C-7.24011719 8.97273438 -6.41382812 8.06265625 -5.5625 7.125 C-4.73878906 6.22007813 -3.91507812 5.31515625 -3.06640625 4.3828125 C-0.99092058 2.18862073 -0.99092058 2.18862073 0 0 Z " fill="#FCEDEA" transform="translate(73,86)"/>
<path d="M0 0 C0.33 0.66 0.66 1.32 1 2 C1.99 1.67 2.98 1.34 4 1 C6.1875 1.4375 6.1875 1.4375 8 2 C8.33 3.32 8.66 4.64 9 6 C7.37276701 5.54965877 5.74826336 5.08944646 4.125 4.625 C3.22007812 4.36976563 2.31515625 4.11453125 1.3828125 3.8515625 C-1 3 -1 3 -3 1 C-2.01 0.67 -1.02 0.34 0 0 Z " fill="#F2CDCA" transform="translate(164,461)"/>
<path d="M0 0 C0.33 1.32 0.66 2.64 1 4 C0.34 4 -0.32 4 -1 4 C-1.2475 4.804375 -1.495 5.60875 -1.75 6.4375 C-3 9 -3 9 -5.125 9.8125 C-5.74375 9.874375 -6.3625 9.93625 -7 10 C-2.85714286 2.42857143 -2.85714286 2.42857143 0 0 Z " fill="#FCDAD7" transform="translate(379,332)"/>
<path d="M0 0 C3.20454382 1.23251685 6.2102034 2.65772559 9.25 4.25 C5.74494073 5.41835309 4.58566718 5.00193262 1.125 3.9375 C0.23554688 3.67324219 -0.65390625 3.40898437 -1.5703125 3.13671875 C-3.75 2.25 -3.75 2.25 -4.75 0.25 C-2.75 -0.75 -2.75 -0.75 0 0 Z " fill="#E88C8C" transform="translate(351.75,27.75)"/>
<path d="M0 0 C6.40629424 -0.20852314 11.92972642 -0.1583195 18 2 C18 2.33 18 2.66 18 3 C11.71739294 3.23268915 6.11980533 2.40454548 0 1 C0 0.67 0 0.34 0 0 Z " fill="#F4CACA" transform="translate(222,379)"/>
<path d="M0 0 C4.20512821 6.30769231 4.20512821 6.30769231 3.75 10.0625 C2.96262076 12.09656303 1.97543616 14.04912769 1 16 C0.67 10.72 0.34 5.44 0 0 Z " fill="#EB8989" transform="translate(179,264)"/>
<path d="M0 0 C-0.75 1.9375 -0.75 1.9375 -2 4 C-4.125 4.75 -4.125 4.75 -6 5 C-6 5.66 -6 6.32 -6 7 C-7.62626404 8.38232443 -9.2925002 9.71937515 -11 11 C-11.66 10.67 -12.32 10.34 -13 10 C-11.71034824 8.62437146 -10.37310707 7.29233607 -9 6 C-8.34 6 -7.68 6 -7 6 C-7 5.34 -7 4.68 -7 4 C-2.52941176 0 -2.52941176 0 0 0 Z " fill="#FDDFDF" transform="translate(168,134)"/>
<path d="M0 0 C0 3.99191204 -1.25498212 5.18079244 -4 8 C-6.75 8.8125 -6.75 8.8125 -9 9 C-8.34 8.01 -7.68 7.02 -7 6 C-6.34 6 -5.68 6 -5 6 C-5 5.34 -5 4.68 -5 4 C-3.37373596 2.61767557 -1.7074998 1.28062485 0 0 Z " fill="#FADFDD" transform="translate(358,356)"/>
<path d="M0 0 C11.52164009 -0.18451025 11.52164009 -0.18451025 17 1 C17 1.33 17 1.66 17 2 C10.90367577 3.32528788 6.02232181 2.46619907 0 1 C0 0.67 0 0.34 0 0 Z " fill="#FBDEDB" transform="translate(202,475)"/>
<path d="M0 0 C3.875 1.75 3.875 1.75 5 4 C5.99 4.33 6.98 4.66 8 5 C8.33 6.65 8.66 8.3 9 10 C7.86800647 9.0919838 6.74467637 8.17316174 5.625 7.25 C4.99851562 6.73953125 4.37203125 6.2290625 3.7265625 5.703125 C1.91687682 3.91800519 0.99882545 2.32050356 0 0 Z " fill="#F8CBCB" transform="translate(70,395)"/>
<path d="M0 0 C3.08089673 2.77280706 4.68775452 5.06326356 6 9 C4.68 8.67 3.36 8.34 2 8 C2.33 7.34 2.66 6.68 3 6 C2.34 6 1.68 6 1 6 C0.67 4.02 0.34 2.04 0 0 Z " fill="#F9D5D5" transform="translate(121,326)"/>
<path d="M0 0 C0 3.52232517 -0.56731481 4.05751328 -2.8125 6.625 C-3.59560547 7.54152344 -3.59560547 7.54152344 -4.39453125 8.4765625 C-6 10 -6 10 -9 11 C-7.59155282 7.78475695 -5.89655214 5.67816132 -3.375 3.25 C-2.74335937 2.63640625 -2.11171875 2.0228125 -1.4609375 1.390625 C-0.73777344 0.70226562 -0.73777344 0.70226562 0 0 Z " fill="#FDF2F1" transform="translate(84,75)"/>
<path d="M0 0 C0.33 0.66 0.66 1.32 1 2 C0.00390625 4.6015625 0.00390625 4.6015625 -1.4375 7.625 C-1.91058594 8.62789063 -2.38367188 9.63078125 -2.87109375 10.6640625 C-3.24363281 11.43492187 -3.61617188 12.20578125 -4 13 C-4.66 13 -5.32 13 -6 13 C-4.31326082 8.50202887 -2.18326108 4.27113698 0 0 Z " fill="#F8CDCE" transform="translate(394,305)"/>
<path d="M0 0 C-2.44579177 2.30925485 -3.59442134 2.99001814 -7.015625 3.07421875 C-8.08296875 2.94660156 -9.1503125 2.81898437 -10.25 2.6875 C-11.32765625 2.56761719 -12.4053125 2.44773437 -13.515625 2.32421875 C-14.33546875 2.21722656 -15.1553125 2.11023438 -16 2 C-16 1.67 -16 1.34 -16 1 C-14.27111445 0.83044205 -12.54187557 0.66448486 -10.8125 0.5 C-9.84957031 0.4071875 -8.88664062 0.314375 -7.89453125 0.21875 C-5.24812333 0.01875156 -2.65239135 -0.03879183 0 0 Z " fill="#F07D7E" transform="translate(286,8)"/>
<path d="M0 0 C-3.01887244 3.48331435 -5.56909529 4.79157144 -10 6 C-8.26240984 0.78722952 -5.3189028 -0.4432419 0 0 Z " fill="#F9D6D2" transform="translate(328,360)"/>
<path d="M0 0 C3.63 0 7.26 0 11 0 C11.33 0.66 11.66 1.32 12 2 C9 3 9 3 6 2 C4.33378384 1.96125079 2.66605828 1.9549714 1 2 C0.67 1.34 0.34 0.68 0 0 Z " fill="#F46868" transform="translate(162,257)"/>
<path d="M0 0 C-2.97 1.65 -5.94 3.3 -9 5 C-9 3.68 -9 2.36 -9 1 C-5.19495213 -0.79682816 -4.29399165 -1.07349791 0 0 Z " fill="#F6CECC" transform="translate(171,113)"/>
<path d="M0 0 C0 0.99 0 1.98 0 3 C-1.75 4.60546875 -1.75 4.60546875 -4 6.1875 C-4.7425 6.71730469 -5.485 7.24710937 -6.25 7.79296875 C-6.8275 8.19128906 -7.405 8.58960937 -8 9 C-6.1144852 4.71640327 -3.64034299 2.84896408 0 0 Z " fill="#FDF3F3" transform="translate(94,66)"/>
<path d="M0 0 C1.48280196 0.78483659 2.9611498 1.57809334 4.4375 2.375 C5.67306641 3.03628906 5.67306641 3.03628906 6.93359375 3.7109375 C9 5 9 5 10 7 C8.35 6.67 6.7 6.34 5 6 C5 5.34 5 4.68 5 4 C3.68 4 2.36 4 1 4 C0.67 2.68 0.34 1.36 0 0 Z " fill="#E99B9D" transform="translate(383,46)"/>
<path d="M0 0 C1.98 0 3.96 0 6 0 C6 0.66 6 1.32 6 2 C7.32 2.33 8.64 2.66 10 3 C9.67 3.66 9.34 4.32 9 5 C4.545 3.02 4.545 3.02 0 1 C0 0.67 0 0.34 0 0 Z " fill="#F4CAC9" transform="translate(192,368)"/>
<path d="M0 0 C3.94139078 1.66751148 6.7892812 4.22710649 10 7 C6.65580848 7 5.93159679 6.52480606 3.3125 4.625 C2.68988281 4.18414062 2.06726563 3.74328125 1.42578125 3.2890625 C0.95527344 2.86367188 0.48476562 2.43828125 0 2 C0 1.34 0 0.68 0 0 Z " fill="#FCE6E4" transform="translate(150,360)"/>
<path d="M0 0 C2.5722047 1.28610235 3.00974907 2.33393981 4 5 C3.625 7.25 3.625 7.25 3 9 C1.5 7.875 1.5 7.875 0 6 C-0.1875 2.8125 -0.1875 2.8125 0 0 Z " fill="#E88285" transform="translate(461,132)"/>
<path d="M0 0 C0.33 0.99 0.66 1.98 1 3 C-0.25 4.5 -0.25 4.5 -2 6 C-3.32 6 -4.64 6 -6 6 C-6 5.34 -6 4.68 -6 4 C-4.03852126 2.61061923 -2.03833424 1.2739589 0 0 Z " fill="#FCE3E0" transform="translate(175,128)"/>
<path d="M0 0 C0 3.39593478 -0.52165948 4.06619881 -2.5 6.6875 C-2.9640625 7.31011719 -3.428125 7.93273437 -3.90625 8.57421875 C-4.2671875 9.04472656 -4.628125 9.51523438 -5 10 C-5.66 9.67 -6.32 9.34 -7 9 C-6.02180976 7.68677212 -5.0424189 6.37443848 -4.0625 5.0625 C-3.51722656 4.33160156 -2.97195312 3.60070312 -2.41015625 2.84765625 C-1 1 -1 1 0 0 Z " fill="#FDECE9" transform="translate(61,102)"/>
<path d="M0 0 C-3.68734758 2.45823172 -6.69699971 3.01242616 -11 4 C-7.95841042 -0.56238437 -5.1474794 -0.11438843 0 0 Z " fill="#F2CFCD" transform="translate(304,373)"/>
<path d="M0 0 C0.66 0.33 1.32 0.66 2 1 C-0.75 7.875 -0.75 7.875 -3 9 C-2.5020163 5.26512223 -2.12508244 3.18762365 0 0 Z " fill="#F26568" transform="translate(179,311)"/>
<path d="M0 0 C2.76223278 2.76223278 2.57856291 5.20706617 3 9 C2.01 9.495 2.01 9.495 1 10 C-0.1577506 6.52674819 -0.06866652 3.63932552 0 0 Z " fill="#FAE7E3" transform="translate(16,268)"/>
<path d="M0 0 C0.99 0 1.98 0 3 0 C3 0.66 3 1.32 3 2 C3.66 2 4.32 2 5 2 C4.67 3.32 4.34 4.64 4 6 C3.01 5.67 2.02 5.34 1 5 C0.67 3.35 0.34 1.7 0 0 Z " fill="#F3DAD5" transform="translate(321,211)"/>
<path d="M0 0 C0.99 0.33 1.98 0.66 3 1 C1.75023244 4.65316671 1.32901247 5.78065836 -2 8 C-1.125 2.25 -1.125 2.25 0 0 Z " fill="#F8DBD7" transform="translate(191,193)"/>
<path d="M0 0 C0.33 0 0.66 0 1 0 C1 1.65 1 3.3 1 5 C0.01 5.33 -0.98 5.66 -2 6 C-2 7.32 -2 8.64 -2 10 C-2.66 10 -3.32 10 -4 10 C-3.52449439 8.51965236 -3.04448784 7.04074979 -2.5625 5.5625 C-2.29566406 4.73878906 -2.02882812 3.91507813 -1.75390625 3.06640625 C-1 1 -1 1 0 0 Z " fill="#FBDEE0" transform="translate(41,133)"/>
<path d="M0 0 C0.99 0.33 1.98 0.66 3 1 C1.37660195 2.70884005 -0.29319053 4.37446717 -2 6 C-2.66 6 -3.32 6 -4 6 C-3.67 4.68 -3.34 3.36 -3 2 C-2.01 2 -1.02 2 0 2 C0 1.34 0 0.68 0 0 Z " fill="#FAD9D6" transform="translate(411,417)"/>
<path d="M0 0 C2.4375 0.75 2.4375 0.75 5 2 C5.8125 4.125 5.8125 4.125 6 6 C5.01 6 4.02 6 3 6 C2.01 4.02 1.02 2.04 0 0 Z " fill="#EFD0CC" transform="translate(52,371)"/>
<path d="M0 0 C0.66 0 1.32 0 2 0 C0.84826645 2.46800047 -0.04783565 4.04783565 -2 6 C-4.125 5.625 -4.125 5.625 -6 5 C-3 3 -3 3 -1 3 C-0.67 2.01 -0.34 1.02 0 0 Z " fill="#F27374" transform="translate(160,337)"/>
<path d="M0 0 C0 4.38968456 -2.12805101 5.76905739 -5 9 C-5.33 8.34 -5.66 7.68 -6 7 C-4.02 4.69 -2.04 2.38 0 0 Z " fill="#FDF1F0" transform="translate(203,320)"/>
<path d="M0 0 C0.66 0 1.32 0 2 0 C0.73058503 3.91402949 -0.51167694 5.79072873 -4 8 C-4 7.01 -4 6.02 -4 5 C-3.34 5 -2.68 5 -2 5 C-2 4.01 -2 3.02 -2 2 C-1.34 2 -0.68 2 0 2 C0 1.34 0 0.68 0 0 Z " fill="#E98B8E" transform="translate(191,299)"/>
<path d="M0 0 C3.34373475 0.55728913 6.03312999 1.35173889 9 3 C8.34 3.66 7.68 4.32 7 5 C4.69 4.01 2.38 3.02 0 2 C0 1.34 0 0.68 0 0 Z " fill="#EA9A98" transform="translate(329,19)"/>
<path d="M0 0 C1.9375 0.5625 1.9375 0.5625 4 2 C4.75 5.625 4.75 5.625 5 9 C1.9083091 6.47043472 1.09068668 3.77545388 0 0 Z " fill="#EFC0BD" transform="translate(40,350)"/>
<path d="M0 0 C0.66 0 1.32 0 2 0 C0.81323934 4.10801767 0.10551666 5.89448334 -3 9 C-2.01 6.03 -1.02 3.06 0 0 Z " fill="#FBF2EF" transform="translate(466,342)"/>
<path d="M0 0 C3.05882701 1.52941351 3.68951234 3.94219546 5 7 C4.67 7.66 4.34 8.32 4 9 C3.67 8.01 3.34 7.02 3 6 C2.01 5.67 1.02 5.34 0 5 C0 3.35 0 1.7 0 0 Z " fill="#F7CBCA" transform="translate(112,310)"/>
<path d="M0 0 C0.99 0.66 1.98 1.32 3 2 C1.625 4 1.625 4 0 6 C-0.66 6 -1.32 6 -2 6 C-2.33 5.01 -2.66 4.02 -3 3 C-2.01 2.01 -1.02 1.02 0 0 Z " fill="#F9E0DB" transform="translate(196,188)"/>
<path d="M0 0 C0.33 0 0.66 0 1 0 C1.1875 2.875 1.1875 2.875 1 6 C0.01 6.66 -0.98 7.32 -2 8 C-1.125 1.125 -1.125 1.125 0 0 Z " fill="#FDEAE8" transform="translate(120,157)"/>
<path d="M0 0 C2 1.375 2 1.375 4 3 C4 3.66 4 4.32 4 5 C4.66 5 5.32 5 6 5 C5.67 5.66 5.34 6.32 5 7 C4.01 6.67 3.02 6.34 2 6 C2 5.34 2 4.68 2 4 C1.34 4 0.68 4 0 4 C0 2.68 0 1.36 0 0 Z " fill="#EB9DA0" transform="translate(434,92)"/>
</svg>
